<?xml version="1.0" standalone="no"?>
<!DOCTYPE svg PUBLIC "-//W3C//DTD SVG 20010904//EN"
 "http://www.w3.org/TR/2001/REC-SVG-20010904/DTD/svg10.dtd">
<svg version="1.0" xmlns="http://www.w3.org/2000/svg"
 width="500.000000pt" height="500.000000pt" viewBox="0 0 500.000000 500.000000"
 preserveAspectRatio="xMidYMid meet">
<metadata>
Created by potrace 1.11, written by Peter Selinger 2001-2013
</metadata>
<g transform="translate(0.000000,500.000000) scale(0.100000,-0.100000)"
fill="#000000" stroke="none">
<path d="M1457 4988 c-69 -173 -366 -954 -457 -1203 -35 -93 -77 -210 -95
-260 -95 -257 -120 -330 -200 -565 -252 -745 -329 -1179 -265 -1500 27 -133
42 -177 97 -280 129 -246 355 -442 896 -780 147 -92 480 -312 501 -332 11 -10
23 -18 26 -18 4 0 20 -11 36 -25 l29 -25 640 0 640 0 29 83 c15 45 32 91 36
102 5 11 30 79 55 150 26 72 51 139 55 150 33 81 130 334 130 340 0 4 6 21 14
38 7 18 21 52 31 77 10 25 27 64 37 87 10 23 18 49 18 57 0 8 4 17 9 20 5 3
12 18 16 33 3 15 14 45 24 68 10 22 26 60 35 85 10 25 22 54 27 65 4 11 43
108 85 215 176 449 305 776 314 795 6 11 34 81 64 155 70 176 170 418 196 475
11 25 29 66 41 93 24 55 22 51 94 210 30 68 55 125 55 128 0 6 264 538 300
604 l30 55 0 458 0 457 -1769 0 c-1406 0 -1770 -3 -1774 -12z m698 -1878 c12
-23 22 -30 46 -30 29 0 30 2 24 30 -6 26 -4 30 14 30 13 0 26 -11 36 -30 12
-23 22 -30 45 -30 27 0 29 2 24 30 -6 26 -3 30 14 30 14 0 27 -11 37 -30 12
-23 22 -30 46 -30 26 0 30 3 24 18 -13 33 -10 37 34 40 68 5 89 -4 111 -48 11
-21 20 -42 20 -45 0 -3 -143 -5 -319 -5 -271 0 -320 2 -331 15 -9 11 -33 15
-84 15 -64 0 -75 3 -95 24 -13 14 -20 29 -16 35 4 7 67 11 180 11 l174 0 16
-30z m535 -16 c11 -12 10 -18 -3 -32 -16 -15 -18 -15 -34 0 -13 14 -14 20 -3
32 7 9 16 16 20 16 4 0 13 -7 20 -16z m-590 -157 l0 -93 -48 -47 -48 -47 -32
33 -32 33 25 24 c20 19 25 32 23 60 l-3 35 -199 3 -199 2 -34 35 c-19 19 -31
40 -28 45 4 6 113 10 291 10 l284 0 0 -93z m180 43 l24 -51 -44 -44 -44 -45
69 -70 69 -70 75 0 c71 0 77 2 108 32 26 25 36 29 45 20 9 -9 5 -19 -17 -42
l-29 -30 27 -27 26 -28 -49 -45 c-37 -33 -50 -52 -50 -73 0 -15 -9 -37 -20
-49 -11 -12 -20 -29 -19 -37 0 -11 3 -9 9 5 11 28 48 54 78 54 13 0 37 -13 53
-29 31 -31 33 -32 23 -6 -8 20 -56 45 -89 45 -39 0 -31 25 27 86 l51 54 -27
28 -26 29 20 18 c24 21 29 17 55 -45 22 -51 20 -48 98 -114 l57 -48 0 -61 c0
-61 0 -62 -57 -119 -32 -32 -62 -58 -68 -58 -6 0 -24 13 -40 30 -26 27 -27 31
-12 47 8 10 19 31 23 47 6 25 5 28 -14 22 -15 -5 -24 -1 -32 14 -6 11 -15 20
-21 20 -5 0 -2 -11 7 -25 9 -14 25 -25 35 -25 18 0 19 -2 5 -29 -17 -32 -34
-41 -76 -41 -33 0 -47 15 -31 33 5 7 7 24 4 36 -4 17 0 29 18 44 l24 19 -25
-14 c-18 -11 -26 -25 -28 -52 -4 -41 -18 -47 -32 -13 -7 17 -9 18 -9 4 -2 -33
44 -67 90 -67 40 0 79 -21 79 -42 0 -4 -79 -8 -175 -8 l-175 0 0 35 c0 32 3
35 28 35 34 0 82 46 82 77 0 32 18 75 43 101 l21 23 -129 129 c-122 122 -129
128 -150 114 -20 -13 -24 -11 -50 16 -27 28 -27 31 -12 48 13 14 17 38 17 105
l0 87 68 0 69 0 23 -50z m675 6 c156 -33 256 -117 348 -290 38 -71 27 -86 -62
-86 -64 0 -69 -1 -64 -20 5 -19 0 -20 -94 -20 -87 0 -102 3 -118 20 -15 16
-33 20 -114 22 l-96 3 -26 55 c-26 55 -26 55 -80 61 l-54 6 52 1 c42 2 51 5
47 17 -4 11 -21 15 -55 15 -27 0 -49 5 -49 10 0 6 18 10 40 10 41 0 52 14 28
38 -11 11 -108 18 -108 8 0 -3 5 -17 10 -32 10 -24 7 -31 -22 -61 -31 -32 -35
-33 -107 -33 l-75 0 -58 57 c-32 32 -58 62 -58 68 0 6 16 26 34 44 l35 34 17
-37 c17 -35 20 -36 71 -36 59 0 58 -4 16 81 -39 81 -45 79 236 79 163 -1 266
-5 306 -14z m-1201 -82 c3 -9 6 -35 6 -59 0 -52 -8 -75 -25 -75 -18 0 -25 23
-25 79 0 58 29 95 44 55z m66 -65 c0 -62 -2 -70 -17 -67 -15 3 -19 16 -21 67
-2 44 1 67 10 72 22 14 28 -1 28 -72z m68 22 c3 -46 1 -52 -15 -49 -13 2 -19
14 -21 42 -4 46 4 69 21 64 7 -3 13 -26 15 -57z m70 26 c3 -22 -1 -27 -17 -27
-15 0 -21 6 -21 23 0 46 33 49 38 4z m-298 4 c0 -5 -13 -12 -29 -16 -24 -5
-30 -12 -33 -38 -3 -37 -21 -43 -26 -9 -5 36 24 72 58 72 17 0 30 -4 30 -9z
m423 -198 l-55 -54 86 -88 86 -88 0 -66 c0 -64 1 -66 28 -69 23 -3 27 -8 27
-33 0 -29 -1 -30 -60 -36 -58 -6 -61 -5 -95 27 l-34 34 37 38 c20 21 37 48 37
60 0 35 -40 28 -80 -13 -37 -38 -48 -42 -56 -21 -3 9 9 29 30 50 20 19 36 44
36 55 0 33 -39 26 -82 -16 -35 -35 -38 -36 -56 -20 -13 12 -37 17 -82 17 -63
0 -65 1 -112 47 l-47 46 -45 -41 c-36 -33 -53 -42 -81 -42 -60 0 -97 57 -75
114 5 15 19 30 30 33 11 3 20 11 20 18 0 7 7 18 15 25 10 8 15 31 15 66 0 41
4 54 15 54 12 0 15 -13 15 -55 0 -52 -3 -59 -45 -103 -25 -26 -45 -55 -45 -65
0 -68 65 -78 123 -19 l37 38 -25 24 c-21 19 -25 33 -25 77 l0 53 60 0 60 0 0
-42 c0 -34 6 -49 32 -75 l32 -33 -29 -30 c-16 -16 -26 -32 -24 -35 3 -2 27 18
54 45 l49 50 -27 28 c-18 19 -27 39 -27 60 0 30 3 32 33 32 24 0 41 8 62 30
16 17 33 30 39 30 5 0 24 -14 42 -31 l32 -31 33 36 34 35 32 -31 31 -30 -55
-55z m-293 15 c0 -21 9 -41 25 -58 23 -24 24 -28 10 -40 -13 -11 -20 -9 -45
15 -24 23 -30 37 -30 72 0 36 3 43 20 43 16 0 20 -7 20 -32z m469 -60 c39 -40
71 -79 71 -85 0 -9 -22 -13 -77 -13 -75 0 -78 1 -115 37 -21 20 -38 42 -38 47
0 12 70 86 81 86 4 0 40 -33 78 -72z m1031 -73 c0 -8 -7 -15 -15 -15 -8 0 -15
7 -15 15 0 8 7 15 15 15 8 0 15 -7 15 -15z m48 4 c-2 -6 -8 -10 -13 -10 -5 0
-11 4 -13 10 -2 6 4 11 13 11 9 0 15 -5 13 -11z m-983 -89 c0 -19 -32 -25 -50
-10 -24 20 -17 31 18 28 20 -2 32 -8 32 -18z m583 8 c17 -17 15 -38 -5 -60
-12 -14 -31 -18 -80 -18 l-63 0 0 45 0 45 68 0 c40 0 73 -5 80 -12z m600 -35
l3 -43 -68 0 c-40 0 -74 5 -81 12 -13 13 -16 60 -5 72 4 4 39 5 78 4 l70 -3 3
-42z m-198 -70 c0 -20 -7 -45 -17 -55 -15 -17 -13 -18 71 -18 56 0 85 -4 81
-10 -7 -12 -192 -14 -199 -2 -3 5 8 22 24 37 17 16 30 37 30 47 0 17 -12 18
-165 18 -163 0 -165 0 -165 -22 0 -12 -14 -37 -32 -55 -32 -33 -32 -33 -130
-33 -59 0 -98 4 -98 10 0 6 39 10 97 10 86 0 99 3 120 22 15 14 23 33 23 55
l0 33 180 0 180 0 0 -37z m-472 -15 c-3 -7 -21 -14 -41 -16 -28 -2 -37 1 -37
12 0 12 11 16 41 16 28 0 39 -4 37 -12z m398 0 c4 -6 -12 -29 -39 -55 l-46
-43 -85 0 c-53 0 -87 4 -92 12 -4 6 12 29 39 55 l46 43 85 0 c53 0 87 -4 92
-12z m272 0 c-3 -7 -20 -13 -38 -13 -18 0 -35 6 -37 13 -3 8 8 12 37 12 29 0
40 -4 38 -12z m-1078 -183 l-54 -55 -143 0 c-164 0 -171 5 -106 72 l37 38 160
0 160 0 -54 -55z m549 11 c24 -24 40 -49 37 -55 -4 -6 -36 -11 -72 -11 l-64 0
0 55 c0 54 1 55 28 55 20 0 40 -13 71 -44z m-1049 -122 c0 -30 3 -35 18 -29 9
4 33 9 52 12 47 7 90 -26 90 -68 0 -26 2 -28 19 -17 18 11 18 14 5 39 -14 28
-14 28 23 38 21 6 51 11 66 11 37 0 97 -26 98 -42 1 -7 4 -2 8 12 5 18 15 26
35 28 16 2 32 -2 36 -8 5 -9 13 -9 26 -2 11 6 50 10 88 11 l68 0 21 -49 c12
-28 24 -50 27 -50 4 0 13 18 20 40 7 22 19 45 26 51 17 14 70 7 67 -8 -2 -8 7
-8 32 3 78 32 175 2 175 -55 0 -14 -56 -14 -82 0 -29 16 -68 3 -68 -22 0 -20
3 -21 77 -14 42 4 84 12 94 18 16 10 16 14 3 38 -14 28 -14 28 23 38 69 20
144 6 159 -27 6 -14 8 -13 13 8 5 18 15 26 35 28 16 2 32 -2 36 -8 6 -9 13 -9
29 0 12 6 34 10 49 8 22 -2 28 -9 30 -35 3 -31 2 -32 -25 -27 -15 3 -40 1 -55
-5 -25 -9 -28 -16 -28 -56 l0 -46 -97 0 c-54 0 -113 -1 -132 -1 -23 -1 -39 5
-50 19 -14 16 -19 17 -29 7 -22 -23 -88 -36 -130 -24 -47 12 -69 35 -74 75 -3
26 -8 17 -37 -57 l-34 -88 -40 0 c-33 0 -38 3 -32 18 16 38 17 52 4 52 -8 0
-28 35 -46 78 -23 56 -32 70 -32 50 -1 -25 -4 -27 -28 -22 -16 3 -40 1 -55 -5
-25 -9 -28 -16 -28 -56 l0 -46 -97 0 c-54 0 -113 0 -131 0 -18 0 -40 5 -48 12
-10 8 -14 8 -14 0 0 -6 -16 -11 -34 -11 -34 0 -35 1 -38 47 -3 51 -16 61 -64
49 -21 -6 -24 -12 -24 -51 0 -45 0 -45 -35 -45 -29 0 -35 4 -35 22 0 20 -1 20
-13 4 -29 -39 -180 -43 -218 -5 -30 30 -24 49 14 49 l32 0 -25 13 c-37 19 -40
70 -4 93 36 24 142 24 178 1 29 -19 35 -54 11 -59 -13 -2 -12 -6 5 -16 19 -12
20 -10 20 53 l0 65 35 0 c34 0 35 -2 35 -36z"/>
<path d="M2210 2980 c0 -5 5 -10 10 -10 6 0 10 5 10 10 0 6 -4 10 -10 10 -5 0
-10 -4 -10 -10z"/>
<path d="M2230 2930 c0 -5 5 -10 10 -10 6 0 10 5 10 10 0 6 -4 10 -10 10 -5 0
-10 -4 -10 -10z"/>
<path d="M2522 2399 c2 -6 8 -10 13 -10 5 0 11 4 13 10 2 6 -4 11 -13 11 -9 0
-15 -5 -13 -11z"/>
<path d="M2980 2595 c16 -20 184 -23 178 -2 -3 8 -34 13 -98 15 -83 2 -92 1
-80 -13z"/>
<path d="M1945 2510 c-3 -5 1 -10 10 -10 9 0 13 5 10 10 -3 6 -8 10 -10 10 -2
0 -7 -4 -10 -10z"/>
<path d="M2890 2454 c0 -14 3 -14 15 -4 8 7 15 14 15 16 0 2 -7 4 -15 4 -8 0
-15 -7 -15 -16z"/>
<path d="M3414 2455 c8 -8 17 -15 20 -15 3 0 6 7 6 15 0 9 -9 15 -21 15 -18 0
-19 -2 -5 -15z"/>
<path d="M3079 2333 l-24 -28 28 24 c25 23 32 31 24 31 -2 0 -14 -12 -28 -27z"/>
<path d="M3129 2333 l-24 -28 28 24 c25 23 32 31 24 31 -2 0 -14 -12 -28 -27z"/>
<path d="M3180 2335 c-13 -14 -20 -25 -17 -25 10 0 49 41 45 46 -3 2 -15 -7
-28 -21z"/>
<path d="M2298 2206 c-26 -19 -22 -28 9 -24 17 2 29 10 31 21 4 20 -16 22 -40
3z"/>
<path d="M1763 2023 c9 -2 25 -2 35 0 9 3 1 5 -18 5 -19 0 -27 -2 -17 -5z"/>
<path d="M2213 2003 c9 -2 25 -2 35 0 9 3 1 5 -18 5 -19 0 -27 -2 -17 -5z"/>
<path d="M3048 2003 c12 -2 30 -2 40 0 9 3 -1 5 -23 4 -22 0 -30 -2 -17 -4z"/>
<path d="M1743 1963 c15 -2 37 -2 50 0 12 2 0 4 -28 4 -27 0 -38 -2 -22 -4z"/>
<path d="M2190 1950 c0 -12 24 -12 60 0 21 7 19 8 -17 9 -24 1 -43 -3 -43 -9z"/>
<path d="M3030 1950 c0 -12 24 -12 60 0 21 7 19 8 -17 9 -24 1 -43 -3 -43 -9z"/>
</g>
</svg>
